<svg width="24" height="24" viewBox="0 0 24 24" fill="none" xmlns="http://www.w3.org/2000/svg">
<mask id="mask0_49_47" style="mask-type:alpha" maskUnits="userSpaceOnUse" x="0" y="0" width="24" height="24">
<rect width="24" height="24" fill="#D9D9D9"/>
</mask>
<g mask="url(#mask0_49_47)">
<path d="M10.1346 21L9.77306 18.1077C9.4539 18.0116 9.10873 17.8603 8.73756 17.6538C8.3664 17.4474 8.05073 17.2263 7.79056 16.9905L5.12306 18.125L3.25781 14.875L5.56356 13.1365C5.53406 12.9558 5.50973 12.7697 5.49056 12.578C5.47123 12.3863 5.46156 12.2001 5.46156 12.0192C5.46156 11.8512 5.47123 11.6747 5.49056 11.4895C5.50973 11.3042 5.53406 11.0955 5.56356 10.8635L3.25781 9.125L5.12306 5.9135L7.77131 7.02875C8.06998 6.78008 8.39306 6.55575 8.74056 6.35575C9.08789 6.15575 9.42564 6.00125 9.75381 5.89225L10.1346 3H13.8656L14.2271 5.9115C14.6104 6.04617 14.9491 6.20067 15.2433 6.375C15.5375 6.54933 15.8404 6.76725 16.1521 7.02875L18.8771 5.9135L20.7423 9.125L18.3596 10.9212C18.4147 11.1276 18.4456 11.317 18.4521 11.4895C18.4584 11.6618 18.4616 11.832 18.4616 12C18.4616 12.1552 18.4551 12.3189 18.4423 12.4913C18.4295 12.6637 18.4 12.8724 18.3538 13.1173L20.6981 14.875L18.8328 18.125L16.1521 16.9712C15.8404 17.2327 15.5269 17.4571 15.2116 17.6443C14.8962 17.8314 14.5681 17.9795 14.2271 18.0885L13.8656 21H10.1346ZM11.9731 14.5C12.6706 14.5 13.2616 14.2577 13.7463 13.773C14.2308 13.2885 14.4731 12.6975 14.4731 12C14.4731 11.3025 14.2308 10.7115 13.7463 10.227C13.2616 9.74233 12.6706 9.5 11.9731 9.5C11.2719 9.5 10.6799 9.74233 10.1971 10.227C9.7144 10.7115 9.47306 11.3025 9.47306 12C9.47306 12.6975 9.7144 13.2885 10.1971 13.773C10.6799 14.2577 11.2719 14.5 11.9731 14.5Z" fill="#1C1B1F"/>
</g>
</svg>
