<svg width="16" height="16" viewBox="0 0 16 16" fill="none" xmlns="http://www.w3.org/2000/svg">
<mask id="mask0_58_302" style="mask-type:alpha" maskUnits="userSpaceOnUse" x="0" y="0" width="16" height="16">
<rect width="16" height="16" fill="#FF0000"/>
</mask>
<g mask="url(#mask0_58_302)">
<path d="M1.86492 13.5998C1.74369 13.5998 1.63742 13.5723 1.54608 13.5173C1.45486 13.4623 1.38386 13.3898 1.33308 13.2998C1.27753 13.2109 1.25253 13.1109 1.25808 12.9998C1.26364 12.8887 1.29419 12.7832 1.34975 12.6832L7.48308 2.44984C7.53864 2.34984 7.6138 2.27762 7.70858 2.23317C7.80325 2.18873 7.90047 2.1665 8.00025 2.1665C8.09992 2.1665 8.19697 2.18873 8.29142 2.23317C8.38586 2.27762 8.46086 2.34984 8.51642 2.44984L14.6497 12.6832C14.7053 12.7832 14.7359 12.8887 14.7414 12.9998C14.747 13.1109 14.722 13.2109 14.6664 13.2998C14.6109 13.3887 14.5386 13.4609 14.4497 13.5165C14.3609 13.5721 14.2558 13.5998 14.1346 13.5998H1.86492ZM2.91642 12.3998H13.0831L7.99975 3.93317L2.91642 12.3998ZM7.99625 11.5998C8.16525 11.5998 8.30808 11.5427 8.42475 11.4283C8.54142 11.314 8.59975 11.1723 8.59975 11.0033C8.59975 10.8343 8.54258 10.6915 8.42825 10.5748C8.31392 10.4582 8.17225 10.3998 8.00325 10.3998C7.83425 10.3998 7.69141 10.457 7.57475 10.5713C7.45808 10.6857 7.39975 10.8273 7.39975 10.9963C7.39975 11.1653 7.45692 11.3082 7.57125 11.4248C7.68558 11.5415 7.82725 11.5998 7.99625 11.5998ZM7.99625 9.59984C8.16525 9.59984 8.30808 9.54234 8.42475 9.42734C8.54142 9.31234 8.59975 9.16984 8.59975 8.99984V6.99984C8.59975 6.82984 8.54258 6.68734 8.42825 6.57234C8.31392 6.45734 8.17225 6.39984 8.00325 6.39984C7.83425 6.39984 7.69141 6.45734 7.57475 6.57234C7.45808 6.68734 7.39975 6.82984 7.39975 6.99984V8.99984C7.39975 9.16984 7.45692 9.31234 7.57125 9.42734C7.68558 9.54234 7.82725 9.59984 7.99625 9.59984Z" fill="#FF0000"/>
</g>
</svg>
