<svg width="15" height="15" viewBox="0 0 15 15" fill="none" xmlns="http://www.w3.org/2000/svg">
<mask id="mask0_49_171" style="mask-type:alpha" maskUnits="userSpaceOnUse" x="0" y="0" width="15" height="15">
<rect width="15" height="15" fill="#D9D9D9"/>
</mask>
<g mask="url(#mask0_49_171)">
<path d="M7.12211 4.81885V3.62385C7.12211 3.28926 7.2369 3.00895 7.46649 2.78291C7.69607 2.55687 7.97711 2.44385 8.30961 2.44385H9.49695V3.63135C9.49695 3.96385 9.38399 4.24489 9.15805 4.47447C8.93201 4.70406 8.65169 4.81885 8.31711 4.81885H7.12211ZM4.31211 8.25619C3.77638 8.25619 3.31992 8.06765 2.94273 7.69057C2.56555 7.31338 2.37695 6.85687 2.37695 6.32104V4.38135H4.31664C4.85247 4.38135 5.30898 4.56994 5.68617 4.94713C6.06336 5.32432 6.25195 5.78077 6.25195 6.3165V8.25619H4.31211ZM10.1245 13.1878C9.79779 13.1878 9.47555 13.1331 9.15774 13.0237C8.83992 12.9143 8.54315 12.7555 8.26742 12.5471L7.59445 13.2203C7.51831 13.2963 7.42773 13.338 7.32273 13.3453C7.21784 13.3524 7.12008 13.3134 7.02945 13.2281C6.93893 13.1427 6.89727 13.0449 6.90445 12.9348C6.91175 12.8246 6.95341 12.7262 7.02945 12.6396L7.68695 11.9667C7.47862 11.7013 7.32237 11.4098 7.2182 11.092C7.11404 10.7742 7.06195 10.4519 7.06195 10.1253C7.06195 9.26546 7.35904 8.54109 7.9532 7.95213C8.54727 7.36328 9.26867 7.06885 10.1174 7.06885H13.1749V10.1323C13.1749 10.9797 12.8811 11.7008 12.2934 12.2956C11.7055 12.8904 10.9826 13.1878 10.1245 13.1878ZM10.2495 12.3753C10.8745 12.3753 11.3849 12.1427 11.7807 11.6776C12.1765 11.2125 12.3745 10.6534 12.3745 10.0003V7.87525H9.95258C9.35883 7.87525 8.86404 8.08171 8.4682 8.49463C8.07237 8.90755 7.87445 9.41145 7.87445 10.0063C7.87445 10.2347 7.9069 10.4624 7.9718 10.6896C8.03669 10.9167 8.13846 11.1353 8.27711 11.3453L9.6232 10.0459C9.73466 9.94494 9.84185 9.89187 9.94477 9.88666C10.0477 9.88145 10.1445 9.92411 10.2351 10.0146C10.3256 10.1053 10.3657 10.2046 10.3552 10.3128C10.3448 10.4209 10.2944 10.5203 10.2038 10.6109L8.8732 11.957C9.06237 12.0748 9.27523 12.174 9.5118 12.2545C9.74846 12.335 9.99435 12.3753 10.2495 12.3753Z" fill="white"/>
</g>
</svg>
