<svg width="15" height="15" viewBox="0 0 15 15" fill="none" xmlns="http://www.w3.org/2000/svg">
<mask id="mask0_49_174" style="mask-type:alpha" maskUnits="userSpaceOnUse" x="0" y="0" width="15" height="15">
<rect width="15" height="15" fill="#D9D9D9"/>
</mask>
<g mask="url(#mask0_49_174)">
<path d="M11.5016 5.46268C11.2578 5.70538 10.9749 5.89247 10.6528 6.02393C10.3308 6.15528 9.99552 6.22096 9.64687 6.22096C9.29833 6.22096 8.9612 6.15465 8.63547 6.02205C8.30984 5.88945 8.02479 5.70299 7.78031 5.46268L6.62406 4.30643C6.45302 4.13413 6.25391 4.00492 6.02672 3.91877C5.79953 3.83262 5.56667 3.78955 5.32813 3.78955C5.1 3.78955 4.8776 3.83523 4.66094 3.92658C4.44438 4.01794 4.25062 4.14455 4.07969 4.30643L3.01594 5.34846L2.45703 4.77393L3.49906 3.7258C3.74448 3.48143 4.02432 3.29294 4.33859 3.16033C4.65297 3.02773 4.98266 2.96143 5.32766 2.96143C5.67276 2.96143 6.00786 3.02773 6.33297 3.16033C6.65818 3.29294 6.94354 3.48143 7.18906 3.7258L8.34531 4.88205C8.5274 5.05486 8.72656 5.18945 8.94281 5.2858C9.15906 5.38205 9.39375 5.43018 9.64687 5.43018C9.88969 5.43018 10.1197 5.37929 10.3369 5.27752C10.5541 5.17575 10.7487 5.04393 10.9209 4.88205L11.9691 3.84002L12.5436 4.41455L11.5016 5.46268ZM11.5016 8.36049C11.2465 8.60486 10.9597 8.79596 10.6414 8.93377C10.323 9.07158 9.98948 9.14049 9.64094 9.14049C9.2924 9.14049 8.95891 9.07158 8.64047 8.93377C8.32213 8.79596 8.03542 8.60486 7.78031 8.36049L6.62406 7.20424C6.45302 7.02153 6.25391 6.88971 6.02672 6.80877C5.79953 6.72783 5.56667 6.68736 5.32813 6.68736C5.1 6.68736 4.875 6.73304 4.65313 6.8244C4.43135 6.91575 4.24021 7.04236 4.07969 7.20424L3.03156 8.24627L2.45703 7.68736L3.49906 6.63924C3.74448 6.39486 4.02432 6.20377 4.33859 6.06596C4.65297 5.92814 4.98266 5.85924 5.32766 5.85924C5.67276 5.85924 6.00786 5.92814 6.33297 6.06596C6.65818 6.20377 6.94354 6.39486 7.18906 6.63924L8.34531 7.79549C8.52615 7.9683 8.72661 8.10028 8.94672 8.19143C9.16672 8.28247 9.39813 8.32799 9.64094 8.32799C9.88375 8.32799 10.1147 8.27971 10.3339 8.18315C10.5531 8.08658 10.7487 7.95736 10.9209 7.79549L11.9847 6.75346L12.5436 7.31236L11.5016 8.36049ZM11.5172 11.2739C11.2623 11.5287 10.9756 11.7198 10.657 11.8472C10.3386 11.9746 9.9999 12.0383 9.64094 12.0383C9.2924 12.0383 8.95625 11.971 8.6325 11.8364C8.30885 11.7017 8.02479 11.5122 7.78031 11.2678L6.62406 10.1177C6.45302 9.93497 6.25391 9.80314 6.02672 9.72221C5.79953 9.64127 5.56146 9.6008 5.3125 9.6008C5.08437 9.6008 4.86198 9.64648 4.64531 9.73783C4.42875 9.82919 4.24021 9.9558 4.07969 10.1177L3.03156 11.1597L2.47266 10.5852L3.49906 9.53705C3.74375 9.29268 4.02276 9.10419 4.33609 8.97158C4.64953 8.83898 4.97833 8.77268 5.3225 8.77268C5.66854 8.77268 6.00458 8.83898 6.33063 8.97158C6.65677 9.10419 6.94292 9.29268 7.18906 9.53705L8.34531 10.6933C8.52792 10.8656 8.72781 10.9974 8.945 11.0888C9.16219 11.1801 9.3974 11.2258 9.65063 11.2258C9.89333 11.2258 10.1228 11.1777 10.3391 11.0814C10.5553 10.9851 10.7493 10.8557 10.9209 10.6933L11.9847 9.65127L12.5436 10.2258L11.5172 11.2739Z" fill="white"/>
</g>
</svg>
