<svg width="15" height="15" viewBox="0 0 15 15" fill="none" xmlns="http://www.w3.org/2000/svg">
<mask id="mask0_49_177" style="mask-type:alpha" maskUnits="userSpaceOnUse" x="0" y="0" width="15" height="15">
<rect width="15" height="15" fill="#D9D9D9"/>
</mask>
<g mask="url(#mask0_49_177)">
<path d="M4.12549 8.99993C4.12549 9.56722 4.26814 10.0961 4.55346 10.5865C4.83867 11.0769 5.22367 11.4727 5.70846 11.774C5.662 11.6859 5.62611 11.5927 5.6008 11.4945C5.57559 11.3963 5.56299 11.2992 5.56299 11.2031C5.56299 10.9659 5.60809 10.7429 5.6983 10.5342C5.78841 10.3254 5.90596 10.1381 6.05096 9.97228L7.50049 8.31368L8.95596 9.97228C9.10106 10.1485 9.21768 10.341 9.3058 10.5498C9.39393 10.7585 9.43799 10.9763 9.43799 11.2031C9.43799 11.2992 9.42538 11.3989 9.40018 11.5023C9.37486 11.6057 9.33898 11.7015 9.29252 11.7896C9.77731 11.5196 10.1623 11.1342 10.4475 10.6334C10.7328 10.1325 10.8755 9.58806 10.8755 8.99993C10.8755 8.46868 10.7843 7.94524 10.6021 7.42962C10.4198 6.91399 10.1567 6.43743 9.81299 5.99993C9.63591 6.11451 9.45101 6.20306 9.2583 6.26556C9.06559 6.32806 8.85466 6.35931 8.62549 6.35931C8.07986 6.35931 7.60132 6.19264 7.18986 5.85931C6.7784 5.52597 6.52257 5.08967 6.42236 4.5504C6.04736 4.89019 5.71924 5.23977 5.43799 5.59915C5.15674 5.95852 4.91715 6.32769 4.71924 6.70665C4.52132 7.08571 4.37288 7.46795 4.27393 7.85337C4.17497 8.23879 4.12549 8.62097 4.12549 8.99993ZM7.50049 9.56243L6.67236 10.4999C6.57861 10.6145 6.5057 10.7317 6.45361 10.8515C6.40153 10.9713 6.37549 11.1041 6.37549 11.2499C6.37549 11.5624 6.48486 11.8281 6.70361 12.0468C6.92236 12.2656 7.18799 12.3749 7.50049 12.3749C7.81299 12.3749 8.07861 12.2656 8.29736 12.0468C8.51611 11.8281 8.62549 11.5624 8.62549 11.2499C8.62549 11.1041 8.59945 10.9687 8.54736 10.8437C8.49528 10.7187 8.42236 10.6041 8.32861 10.4999L7.50049 9.56243ZM7.18799 2.80884V4.10931C7.18799 4.50993 7.32741 4.84967 7.60627 5.12852C7.88512 5.40738 8.22486 5.54681 8.62549 5.54681C8.80653 5.54681 8.97861 5.51337 9.14174 5.44649C9.30476 5.37962 9.44841 5.28644 9.57268 5.16696L9.81658 4.92071C10.3711 5.3005 10.8216 5.87061 11.1681 6.63103C11.5147 7.39144 11.688 8.18108 11.688 8.99993C11.688 10.1618 11.2805 11.1502 10.4656 11.9651C9.65075 12.78 8.66236 13.1874 7.50049 13.1874C6.33861 13.1874 5.35023 12.78 4.53533 11.9651C3.72044 11.1502 3.31299 10.1618 3.31299 8.99993C3.31299 7.96951 3.65174 6.90399 4.32924 5.80337C5.00674 4.70285 5.95966 3.70467 7.18799 2.80884Z" fill="white"/>
</g>
</svg>
