<svg width="15" height="15" viewBox="0 0 15 15" fill="none" xmlns="http://www.w3.org/2000/svg">
<mask id="mask0_49_168" style="mask-type:alpha" maskUnits="userSpaceOnUse" x="0" y="0" width="15" height="15">
<rect width="15" height="15" fill="#D9D9D9"/>
</mask>
<g mask="url(#mask0_49_168)">
<path d="M8.55172 13.3476C8.44588 13.4005 8.34271 13.4105 8.24219 13.3776C8.14167 13.3448 8.06495 13.2755 8.01203 13.1698L7.01437 11.1745C6.96156 11.0687 6.95156 10.9656 6.98438 10.8651C7.01719 10.7645 7.08651 10.6877 7.19234 10.6349C7.28766 10.582 7.38922 10.573 7.49703 10.6079C7.60474 10.6427 7.68505 10.713 7.73797 10.8187L8.73562 12.8079C8.78844 12.9137 8.79745 13.0169 8.76266 13.1174C8.72776 13.218 8.65745 13.2947 8.55172 13.3476ZM11.6514 13.3476C11.5457 13.4005 11.4399 13.4105 11.3342 13.3776C11.2284 13.3448 11.149 13.2755 11.0961 13.1698L10.0986 11.1745C10.0457 11.0687 10.0383 10.9656 10.0764 10.8651C10.1144 10.7645 10.1863 10.6877 10.292 10.6349C10.3979 10.582 10.502 10.573 10.6045 10.6079C10.7071 10.6427 10.7848 10.713 10.8377 10.8187L11.8353 12.8079C11.8882 12.9137 11.8972 13.0169 11.8623 13.1174C11.8276 13.218 11.7572 13.2947 11.6514 13.3476ZM5.45797 13.3476C5.35214 13.4005 5.24536 13.4105 5.13766 13.3776C5.02984 13.3448 4.94953 13.2755 4.89672 13.1698L3.89906 11.1745C3.84615 11.0687 3.83974 10.9656 3.87984 10.8651C3.91984 10.7645 3.99276 10.6877 4.09859 10.6349C4.20432 10.582 4.30745 10.573 4.40797 10.6079C4.50859 10.6427 4.58536 10.713 4.63828 10.8187L5.63578 12.8079C5.6887 12.9137 5.6987 13.0169 5.66578 13.1174C5.63297 13.218 5.5637 13.2947 5.45797 13.3476ZM4.60937 9.59399C3.76406 9.59399 3.06052 9.28972 2.49875 8.68118C1.93708 8.07254 1.65625 7.34035 1.65625 6.48462C1.65625 5.71056 1.92266 5.04853 2.45547 4.49853C2.98839 3.94842 3.64984 3.62728 4.43984 3.53509C4.74036 2.95582 5.16448 2.4979 5.71219 2.16134C6.25979 1.82478 6.85573 1.65649 7.5 1.65649C8.36542 1.65649 9.11422 1.93936 9.74641 2.50509C10.3786 3.07082 10.7576 3.78394 10.8834 4.64446C11.6054 4.65728 12.1959 4.91311 12.655 5.41196C13.1142 5.91071 13.3438 6.48181 13.3438 7.12524C13.3438 7.81035 13.1035 8.39306 12.6231 8.87337C12.1428 9.35379 11.5601 9.59399 10.875 9.59399H4.60937ZM4.6875 8.78149H10.875C11.3318 8.78149 11.722 8.61962 12.0456 8.29587C12.3694 7.97222 12.5312 7.58202 12.5312 7.12524C12.5312 6.66847 12.3694 6.27827 12.0456 5.95462C11.722 5.63087 11.3318 5.46899 10.875 5.46899H10.2031L10.0625 4.68774C9.97917 4.04993 9.69333 3.52066 9.205 3.09993C8.71656 2.67931 8.14823 2.46899 7.5 2.46899C6.98875 2.46899 6.52219 2.60821 6.10031 2.88665C5.67844 3.16509 5.35734 3.53707 5.13703 4.00259L4.96031 4.34399H4.6875C4.07052 4.34399 3.54646 4.55952 3.11531 4.99056C2.68427 5.4217 2.46875 5.94577 2.46875 6.56274C2.46875 7.17972 2.68427 7.70379 3.11531 8.13493C3.54646 8.56597 4.07052 8.78149 4.6875 8.78149Z" fill="#1C1B1F"/>
</g>
</svg>
