<svg width="19" height="19" viewBox="0 0 19 19" fill="none" xmlns="http://www.w3.org/2000/svg">
<mask id="mask0_58_191" style="mask-type:alpha" maskUnits="userSpaceOnUse" x="0" y="0" width="19" height="19">
<rect width="19" height="19" fill="#D9D9D9"/>
</mask>
<g mask="url(#mask0_58_191)">
<path d="M4.69079 16.6249C4.38732 16.6249 4.09374 16.5194 3.81006 16.3083C3.52638 16.0971 3.33836 15.8398 3.246 15.5364C2.91614 14.428 2.64565 13.4681 2.43454 12.6567C2.22343 11.8452 2.0552 11.1327 1.92985 10.5192C1.8045 9.90565 1.71544 9.36138 1.66266 8.88638C1.60988 8.41138 1.5835 7.95617 1.5835 7.52075C1.5835 6.30686 2.00572 5.2777 2.85016 4.43325C3.69461 3.58881 4.72377 3.16659 5.93766 3.16659H9.896C10.2522 2.69159 10.7042 2.30895 11.2517 2.01867C11.7993 1.72839 12.4029 1.58325 13.0627 1.58325C13.3925 1.58325 13.6729 1.6987 13.9038 1.92961C14.1347 2.16051 14.2502 2.44089 14.2502 2.77075C14.2502 2.84992 14.2403 2.92909 14.2205 3.00825C14.2007 3.08742 14.1776 3.15999 14.1512 3.22596C14.0984 3.3711 14.0489 3.51624 14.0028 3.66138C13.9566 3.80652 13.9203 3.96485 13.8939 4.13638L15.695 5.93742H16.6252C16.8495 5.93742 17.0375 6.01329 17.1892 6.16502C17.341 6.31676 17.4168 6.50478 17.4168 6.72909V10.8853C17.4168 11.0569 17.3673 11.2086 17.2684 11.3405C17.1694 11.4725 17.0342 11.5714 16.8627 11.6374L15.1804 12.1916L14.1908 15.4968C14.0852 15.8399 13.8939 16.1136 13.6168 16.3181C13.3397 16.5227 13.0231 16.6249 12.6668 16.6249H11.0835C10.6481 16.6249 10.2753 16.4699 9.96527 16.1598C9.6552 15.8497 9.50016 15.477 9.50016 15.0416H7.91683C7.91683 15.477 7.76179 15.8497 7.45173 16.1598C7.14166 16.4699 6.76891 16.6249 6.3335 16.6249H4.69079ZM4.75016 15.0416H6.3335V13.4583H11.0835V15.0416H12.6668L13.8939 10.9645L15.8335 10.3114V7.52075H15.0418L12.271 4.74992C12.271 4.48603 12.2875 4.22874 12.3205 3.97804C12.3535 3.72735 12.4029 3.48325 12.4689 3.24575C12.0863 3.35131 11.7498 3.53273 11.4595 3.79002C11.1693 4.04731 10.9581 4.36728 10.8262 4.74992H5.93766C5.17238 4.74992 4.51926 5.0204 3.97829 5.56138C3.43732 6.10235 3.16683 6.75547 3.16683 7.52075C3.16683 8.06172 3.30537 8.98863 3.58245 10.3015C3.85954 11.6143 4.24877 13.1944 4.75016 15.0416ZM12.6668 8.70825C12.8911 8.70825 13.0792 8.63238 13.2309 8.48065C13.3826 8.32891 13.4585 8.14089 13.4585 7.91659C13.4585 7.69228 13.3826 7.50426 13.2309 7.35252C13.0792 7.20079 12.8911 7.12492 12.6668 7.12492C12.4425 7.12492 12.2545 7.20079 12.1028 7.35252C11.951 7.50426 11.8752 7.69228 11.8752 7.91659C11.8752 8.14089 11.951 8.32891 12.1028 8.48065C12.2545 8.63238 12.4425 8.70825 12.6668 8.70825ZM9.50016 7.12492C9.72447 7.12492 9.91249 7.04905 10.0642 6.89731C10.216 6.74558 10.2918 6.55756 10.2918 6.33325C10.2918 6.10895 10.216 5.92093 10.0642 5.76919C9.91249 5.61745 9.72447 5.54159 9.50016 5.54159H7.12516C6.90086 5.54159 6.71284 5.61745 6.5611 5.76919C6.40936 5.92093 6.3335 6.10895 6.3335 6.33325C6.3335 6.55756 6.40936 6.74558 6.5611 6.89731C6.71284 7.04905 6.90086 7.12492 7.12516 7.12492H9.50016Z" fill="#1C1B1F"/>
</g>
</svg>
